<mxfile host="app.diagrams.net" agent="Mozilla/5.0 (Windows NT 10.0; Win64; x64) AppleWebKit/537.36 (KHTML, like Gecko) Chrome/140.0.0.0 Safari/537.36 Edg/140.0.0.0" version="28.2.3">
  <diagram id="diagram-1" name="Page-1">
    <mxGraphModel dx="864" dy="482" grid="1" gridSize="10" guides="1" tooltips="1" connect="1" arrows="1" fold="1" page="1" pageScale="1" pageWidth="850" pageHeight="1100" math="0" shadow="0">
      <root>
        <mxCell id="0" />
        <mxCell id="1" parent="0" />
        <mxCell id="dev" value="Developer" style="rounded=1;whiteSpace=wrap;html=1;fillColor=#ffffff;strokeColor=#000000" parent="1" vertex="1">
          <mxGeometry x="20" y="20" width="120" height="60" as="geometry" />
        </mxCell>
        <mxCell id="git" value="Git (GitHub)" style="rounded=1;whiteSpace=wrap;html=1;fillColor=#e1f5fe;strokeColor=#0288d1" parent="1" vertex="1">
          <mxGeometry x="160" y="20" width="140" height="60" as="geometry" />
        </mxCell>
        <mxCell id="sChfUTh4cKQFeyKba0Sc-1" style="edgeStyle=orthogonalEdgeStyle;rounded=0;orthogonalLoop=1;jettySize=auto;html=1;exitX=1;exitY=0.5;exitDx=0;exitDy=0;" edge="1" parent="1" source="ci">
          <mxGeometry relative="1" as="geometry">
            <mxPoint x="500" y="60" as="targetPoint" />
          </mxGeometry>
        </mxCell>
        <mxCell id="ci" value="CI (Jenkins)" style="rounded=1;whiteSpace=wrap;html=1;fillColor=#fff3e0;strokeColor=#fb8c00" parent="1" vertex="1">
          <mxGeometry x="320" y="20" width="140" height="60" as="geometry" />
        </mxCell>
        <mxCell id="reg" value="Container Registry" style="rounded=1;whiteSpace=wrap;html=1;fillColor=#e8f5e9;strokeColor=#43a047" parent="1" vertex="1">
          <mxGeometry x="480" y="20" width="140" height="60" as="geometry" />
        </mxCell>
        <mxCell id="tf" value="Terraform" style="rounded=1;whiteSpace=wrap;html=1;fillColor=#f3e5f5;strokeColor=#8e24aa" parent="1" vertex="1">
          <mxGeometry x="640" y="20" width="120" height="60" as="geometry" />
        </mxCell>
        <mxCell id="k8s" value="Kubernetes Cluster (Minikube)" style="rounded=1;whiteSpace=wrap;html=1;fillColor=#e0f7fa;strokeColor=#006064" parent="1" vertex="1">
          <mxGeometry x="210" y="190" width="300" height="140" as="geometry" />
        </mxCell>
        <mxCell id="opa" value="OPA / Gatekeeper (Admission Policies)" style="rounded=1;whiteSpace=wrap;html=1;fillColor=#ffebee;strokeColor=#c62828" parent="1" vertex="1">
          <mxGeometry x="670" y="220" width="160" height="80" as="geometry" />
        </mxCell>
        <mxCell id="monitor" value="Monitoring Prometheus / Grafana" style="rounded=1;whiteSpace=wrap;html=1;fillColor=#fffde7;strokeColor=#f9a825" parent="1" vertex="1">
          <mxGeometry x="260" y="380" width="200" height="60" as="geometry" />
        </mxCell>
        <mxCell id="e1" style="edgeStyle=orthogonalEdgeStyle;rounded=0;orthogonalLoop=1;jettySize=auto;html=1;endArrow=block;strokeColor=#000000" parent="1" source="dev" target="git" edge="1">
          <mxGeometry relative="1" as="geometry" />
        </mxCell>
        <mxCell id="e2" style="edgeStyle=orthogonalEdgeStyle;rounded=0;orthogonalLoop=1;jettySize=auto;html=1;endArrow=block;strokeColor=#000000" parent="1" source="git" target="ci" edge="1">
          <mxGeometry relative="1" as="geometry" />
        </mxCell>
        <mxCell id="e3" style="edgeStyle=orthogonalEdgeStyle;rounded=0;orthogonalLoop=1;jettySize=auto;html=1;endArrow=block;strokeColor=#000000" parent="1" source="ci" target="reg" edge="1">
          <mxGeometry relative="1" as="geometry" />
        </mxCell>
        <mxCell id="e5" style="edgeStyle=orthogonalEdgeStyle;rounded=0;orthogonalLoop=1;jettySize=auto;html=1;endArrow=block;strokeColor=#000000" parent="1" source="reg" target="k8s" edge="1">
          <mxGeometry relative="1" as="geometry" />
        </mxCell>
        <mxCell id="e6" style="edgeStyle=orthogonalEdgeStyle;rounded=0;orthogonalLoop=1;jettySize=auto;html=1;endArrow=block;strokeColor=#000000" parent="1" source="tf" target="k8s" edge="1">
          <mxGeometry relative="1" as="geometry">
            <Array as="points">
              <mxPoint x="700" y="90" />
              <mxPoint x="360" y="90" />
            </Array>
          </mxGeometry>
        </mxCell>
        <mxCell id="e7" style="edgeStyle=orthogonalEdgeStyle;rounded=0;orthogonalLoop=1;jettySize=auto;html=1;endArrow=block;strokeColor=#000000" parent="1" source="opa" target="k8s" edge="1">
          <mxGeometry relative="1" as="geometry" />
        </mxCell>
        <mxCell id="e8" style="edgeStyle=orthogonalEdgeStyle;rounded=0;orthogonalLoop=1;jettySize=auto;html=1;endArrow=block;strokeColor=#000000" parent="1" source="k8s" target="monitor" edge="1">
          <mxGeometry relative="1" as="geometry" />
        </mxCell>
        <mxCell id="sChfUTh4cKQFeyKba0Sc-2" style="edgeStyle=orthogonalEdgeStyle;rounded=0;orthogonalLoop=1;jettySize=auto;html=1;endArrow=block;strokeColor=#000000;exitX=1;exitY=0.5;exitDx=0;exitDy=0;" edge="1" parent="1" source="reg">
          <mxGeometry relative="1" as="geometry">
            <mxPoint x="620" y="110" as="sourcePoint" />
            <mxPoint x="640" y="50" as="targetPoint" />
            <Array as="points" />
          </mxGeometry>
        </mxCell>
      </root>
    </mxGraphModel>
  </diagram>
</mxfile>
